<svg width="1471" height="643" viewBox="0 0 1471 643" fill="none" xmlns="http://www.w3.org/2000/svg">
<g clip-path="url(#clip0_339_2508)">
<rect x="2" width="1469" height="643" rx="30" fill="#DA0505"/>
<line x1="94.5" y1="2.31519e-08" x2="94.5" y2="643" stroke="white" stroke-opacity="0.28"/>
<line x1="254.5" y1="2.31519e-08" x2="254.5" y2="643" stroke="white" stroke-opacity="0.28"/>
<line x1="414.5" y1="2.31519e-08" x2="414.5" y2="643" stroke="white" stroke-opacity="0.28"/>
<line x1="574.5" y1="2.31519e-08" x2="574.5" y2="643" stroke="white" stroke-opacity="0.28"/>
<line x1="734.5" y1="2.31519e-08" x2="734.5" y2="643" stroke="white" stroke-opacity="0.28"/>
<line x1="894.5" y1="2.31519e-08" x2="894.5" y2="643" stroke="white" stroke-opacity="0.28"/>
<line x1="1054.5" y1="2.31519e-08" x2="1054.5" y2="643" stroke="white" stroke-opacity="0.28"/>
<line x1="1214.5" y1="2.31519e-08" x2="1214.5" y2="643" stroke="white" stroke-opacity="0.28"/>
<line x1="1374.5" y1="2.31519e-08" x2="1374.5" y2="643" stroke="white" stroke-opacity="0.28"/>
<line x1="-6.01367" y1="114.964" x2="1474.01" y2="114.964" stroke="white" stroke-opacity="0.28"/>
<line x1="-6.01367" y1="244.964" x2="1474.01" y2="244.964" stroke="white" stroke-opacity="0.28"/>
<line x1="-35" y1="374.964" x2="1503" y2="374.964" stroke="white" stroke-opacity="0.28"/>
<line x1="-28" y1="504.964" x2="1496" y2="504.964" stroke="white" stroke-opacity="0.28"/>
</g>
<defs>
<clipPath id="clip0_339_2508">
<rect width="1471" height="643" fill="white"/>
</clipPath>
</defs>
</svg>
