<svg width="37" height="37" viewBox="0 0 37 37" fill="none" xmlns="http://www.w3.org/2000/svg">
<rect width="37" height="37" rx="4" fill="white"/>
<path d="M26.1875 8.84375C25.9688 9.34375 25.7734 9.78125 25.6016 10.1562C25.4297 10.5312 25.2812 10.8516 25.1562 11.1172C25.0156 11.4141 24.8984 11.6797 24.8047 11.9141C24.7266 12.0859 24.625 12.3203 24.5 12.6172C24.375 12.8828 24.2188 13.2344 24.0312 13.6719C23.8594 14.0938 23.6328 14.6406 23.3516 15.3125C23.2109 14.7344 23.0391 14.2266 22.8359 13.7891C22.6328 13.3516 22.4141 12.9688 22.1797 12.6406C21.9453 12.3125 21.6953 12.0469 21.4297 11.8438C21.1797 11.625 20.9297 11.4453 20.6797 11.3047C20.1016 10.9922 19.4922 10.8203 18.8516 10.7891C18.0078 10.8359 17.3438 10.9766 16.8594 11.2109C16.3906 11.4297 16.0469 11.6875 15.8281 11.9844C15.6094 12.2656 15.4922 12.5625 15.4766 12.875C15.4609 13.1719 15.5 13.4219 15.5938 13.625C15.6719 13.8125 15.9453 14.0312 16.4141 14.2812C16.8984 14.5312 17.4766 14.8203 18.1484 15.1484C18.8359 15.4609 19.5703 15.8203 20.3516 16.2266C21.1328 16.6172 21.8516 17.0547 22.5078 17.5391C23.1797 18.0078 23.7422 18.5234 24.1953 19.0859C24.6641 19.6328 24.9219 20.2188 24.9688 20.8438C25.0156 21.6406 25.0078 22.3594 24.9453 23C24.8828 23.6406 24.6641 24.1875 24.2891 24.6406C23.9141 25.0938 23.3281 25.4531 22.5312 25.7188C21.75 25.9844 20.6641 26.1484 19.2734 26.2109C17.8359 26.2734 16.6562 26.1953 15.7344 25.9766C14.8125 25.7578 14.0625 25.4609 13.4844 25.0859C12.9219 24.7109 12.5 24.2969 12.2188 23.8438C11.9531 23.3906 11.7578 22.9609 11.6328 22.5547C11.5078 22.1328 11.4219 21.7734 11.375 21.4766C11.3281 21.1641 11.25 20.9766 11.1406 20.9141C11.0156 20.8359 10.8906 20.7656 10.7656 20.7031C10.6562 20.6406 10.5391 20.5859 10.4141 20.5391C10.2891 20.4766 10.1641 20.4219 10.0391 20.375L16.8594 19.2734C16.4688 19.5859 16.1641 19.875 15.9453 20.1406C15.7422 20.4062 15.5859 20.6406 15.4766 20.8438C15.3516 21.0781 15.2656 21.2969 15.2188 21.5C15.1875 21.7188 15.2578 21.9922 15.4297 22.3203C15.6016 22.6484 15.8359 22.9688 16.1328 23.2812C16.4453 23.5781 16.8047 23.8281 17.2109 24.0312C17.6172 24.2344 18.0391 24.3203 18.4766 24.2891C19.0234 24.2422 19.4688 24.1094 19.8125 23.8906C20.1562 23.6562 20.4141 23.3672 20.5859 23.0234C20.7734 22.6797 20.8828 22.3047 20.9141 21.8984C20.9453 21.4922 20.9062 21.0938 20.7969 20.7031C20.7031 20.2969 20.5469 19.9219 20.3281 19.5781C20.1094 19.2188 19.8516 18.9219 19.5547 18.6875C19.2891 18.5 18.875 18.3203 18.3125 18.1484C17.7656 17.9766 17.1484 17.7891 16.4609 17.5859C15.7891 17.3828 15.0938 17.1484 14.375 16.8828C13.6719 16.6172 13.0312 16.2891 12.4531 15.8984C11.8906 15.5078 11.4375 15.0469 11.0938 14.5156C10.7656 13.9844 10.6406 13.3438 10.7188 12.5938C10.7812 11.9531 10.9844 11.4219 11.3281 11C11.6875 10.5625 12.1328 10.2188 12.6641 9.96875C13.2109 9.70312 13.8125 9.50781 14.4688 9.38281C15.1406 9.25781 15.8203 9.1875 16.5078 9.17188C17.2109 9.14062 17.8984 9.14844 18.5703 9.19531C19.2578 9.24219 19.875 9.29688 20.4219 9.35938C20.9688 9.42188 21.4297 9.48438 21.8047 9.54688C22.1953 9.59375 22.4375 9.625 22.5312 9.64062C22.9375 9.67188 23.3438 9.66406 23.75 9.61719C24.1094 9.58594 24.5 9.51562 24.9219 9.40625C25.3594 9.28125 25.7812 9.09375 26.1875 8.84375Z" fill="black"/>
</svg>
